# xmcd
#
# Track frame offsets: 
#        150
#        4698
#        20421
#        30744
#        47367
#        59865
#        72213
#        86136
#        103509
#        114207
#        123930
#        138378
#        151776
#        164274
#        179247
#        196470
#        217593
#
# Disc length: 3060 seconds
#
# Revision: 0
# Processed by: cddbd v1.5.2PL0 Copyright (c) Steve Scherf et al.
# Submitted via: ExactAudioCopy v0.99pb5
#
DISCID=e00bf211
DTITLE=Southern Rail - Live! at the Linden Tree - Jan 5, 2008
DYEAR=2008
DGENRE=Bluegrass
TTITLE0=Prelude
TTITLE1=Carolina Lightning
TTITLE2=High, Low And Wide
TTITLE3=Long Hard Road
TTITLE4=Prisoner Of The Highway
TTITLE5=Earl's Breakdown
TTITLE6=Greenville Trestle High
TTITLE7=On The Road From Appomattox
TTITLE8=Long Gone
TTITLE9=Jonah's Wail
TTITLE10=Mountains And Memories
TTITLE11=Children Go Where I Send Thee
TTITLE12=Polka On A Banjo
TTITLE13=Hard Times Come Again No More
TTITLE14=I Didn't Ask
TTITLE15=My Old Friends - encore
TTITLE16=Foggy Mountain Breakdown - encore
EXTD=
EXTT0=
EXTT1=
EXTT2=
EXTT3=
EXTT4=
EXTT5=
EXTT6=
EXTT7=
EXTT8=
EXTT9=
EXTT10=
EXTT11=
EXTT12=
EXTT13=
EXTT14=
EXTT15=
EXTT16=
PLAYORDER=
